<svg xmlns="http://www.w3.org/2000/svg" viewBox="0 0 380 690">
<defs><linearGradient id="cape" x1="0" x2="1" y2="1"><stop stop-color="#13263c"/><stop offset=".45" stop-color="#49618e"/><stop offset="1" stop-color="#09131f"/></linearGradient><linearGradient id="cape2" x1="0" y1="0" x2=".8" y2="1"><stop stop-color="#7772a4"/><stop offset=".6" stop-color="#222b50"/><stop offset="1" stop-color="#0e1727"/></linearGradient><linearGradient id="dress" x1="0" x2="1" y2="1"><stop stop-color="#756c85"/><stop offset=".45" stop-color="#353553"/><stop offset="1" stop-color="#141a2c"/></linearGradient><linearGradient id="skin" x1="0" x2="1" y2="1"><stop stop-color="#f0cbb5"/><stop offset=".48" stop-color="#cc9e8f"/><stop offset="1" stop-color="#9f6f73"/></linearGradient><linearGradient id="hair" x1="0" x2="1" y2="1"><stop stop-color="#221a29"/><stop offset=".45" stop-color="#483142"/><stop offset="1" stop-color="#171723"/></linearGradient><radialGradient id="keyGlow"><stop stop-color="#dbfaff" stop-opacity=".7"/><stop offset="1" stop-color="#dbfaff" stop-opacity="0"/></radialGradient><filter id="halo"><feGaussianBlur stdDeviation="8"/></filter></defs>
<ellipse cx="184" cy="620" rx="120" ry="33" fill="#080e1c" opacity=".44"/>
<path d="M102 213Q43 289 35 459Q22 575 7 667Q104 713 192 654Q312 715 375 668L329 434Q320 279 263 204Z" fill="url(#cape)" stroke="#bdab92" stroke-opacity=".52" stroke-width="2"/>
<path d="M101 220Q59 270 49 429Q43 560 38 642Q107 674 159 646L162 263Z" fill="url(#cape2)" opacity=".83"/><path d="M276 235Q313 309 330 477L355 643Q295 681 257 660L241 275Z" fill="#161d36" opacity=".83"/>
<path d="M165 180L211 181 221 245 150 246Z" fill="url(#skin)"/>
<path d="M138 233Q188 266 239 234Q258 280 269 348L299 662Q189 710 82 662L109 354Q119 270 138 233Z" fill="url(#dress)" stroke="#baaa91" stroke-opacity=".55" stroke-width="2"/>
<path d="M132 260Q187 298 245 257" stroke="#e5ca9a" stroke-width="3" fill="none" opacity=".9"/><path d="M132 271Q187 306 245 268" stroke="#c2a9cc" stroke-width="1.3" fill="none" opacity=".55"/><path d="M123 358Q189 379 268 356" stroke="#ceb08b" stroke-width="2" fill="none" opacity=".6"/><path d="M173 350L210 350 216 377 192 399 167 378Z" fill="#bfb0bb" opacity=".45" stroke="#dbbf9d"/><path d="M188 355L201 371 188 389 176 371Z" fill="#e4d4af"/>
<path d="M122 289Q105 330 115 446Q126 546 119 644" stroke="#c2a9a8" stroke-opacity=".36" fill="none" stroke-width="2"/><path d="M247 284Q257 382 263 456Q270 565 275 649" stroke="#e1c6a0" stroke-opacity=".35" fill="none" stroke-width="2"/>
<path d="M121 267Q99 252 94 320L88 449Q83 466 95 477L126 478 138 333Q149 283 121 267Z" fill="url(#dress)"/><path d="M252 268Q289 279 292 336L293 422 281 435 255 424 260 338Z" fill="url(#dress)"/>
<path d="M76 446Q76 433 89 431L109 432Q125 432 126 446L119 483Q104 495 89 477Z" fill="url(#skin)"/><path d="M272 427Q273 414 285 414L299 417 300 449 282 461 267 447Z" fill="url(#skin)"/>
<path d="M108 89Q99 27 163 20Q221 0 254 56Q276 92 265 176Q254 226 239 239Q235 174 122 176Q124 229 144 240Q100 205 99 155Z" fill="url(#hair)"/>
<path d="M120 103Q126 56 185 48Q235 57 242 104L244 158Q239 203 191 219Q143 207 125 172Z" fill="url(#skin)" stroke="#e6c6b3" stroke-opacity=".45"/>
<path d="M119 107Q130 18 199 31Q241 44 252 94Q233 111 211 106Q163 87 131 133L122 169Q114 152 119 107Z" fill="url(#hair)"/>
<path d="M126 137Q95 190 129 247L116 293Q70 232 90 143L104 85Z" fill="url(#hair)"/><path d="M249 119Q278 178 258 274L234 255Q251 196 236 153Z" fill="url(#hair)"/>
<path d="M147 145Q161 134 174 144M204 144Q220 134 231 143" stroke="#533b40" stroke-width="4" stroke-linecap="round" fill="none"/>
<path d="M152 157Q165 164 174 157M205 157Q217 164 227 156" stroke="#352937" stroke-width="3" stroke-linecap="round" fill="none"/><path d="M189 167L185 177 196 180" stroke="#9c6e75" stroke-width="2" fill="none"/><path d="M172 188Q191 198 208 187" stroke="#8d5b67" stroke-width="2.5" fill="none"/>
<path d="M158 228Q190 245 225 226L238 237Q194 265 141 240Z" fill="#bda3a8" stroke="#e5c8a4" stroke-width="1.6"/>
<!-- Key hanging at the hip: signature emblem -->
<path d="M248 370Q283 390 296 416" stroke="#dfc79a" fill="none" stroke-width="4"/><circle cx="300" cy="417" r="17" fill="none" stroke="#eed7a9" stroke-width="5"/><path d="M300 435V479H309V469H319V459H308V438Z" fill="#d2b577" stroke="#edddba" stroke-width="1"/>
<path d="M174 293L192 269 210 293 192 317Z" fill="none" stroke="#dec19d" stroke-width="1.5"/>
<g fill="#f1dbb0" opacity=".82"><circle cx="146" cy="327" r="2"/><circle cx="233" cy="314" r="2"/><circle cx="197" cy="431" r="2"/><circle cx="155" cy="540" r="1.5"/><circle cx="233" cy="571" r="1.5"/></g>
</svg>