<svg xmlns="http://www.w3.org/2000/svg" viewBox="0 0 960 1050" preserveAspectRatio="xMidYMid slice">
 <defs><linearGradient id="sky" x2=".3" y2="1"><stop stop-color="#061a25"/><stop offset=".52" stop-color="#18636c"/><stop offset="1" stop-color="#061a25"/></linearGradient><radialGradient id="portal"><stop stop-color="#18636c" stop-opacity=".58"/><stop offset=".6" stop-color="#061a25" stop-opacity=".9"/><stop offset="1" stop-color="#d3c4a1" stop-opacity=".1"/></radialGradient><radialGradient id="inner"><stop stop-color="#9af1e2" stop-opacity=".20"/><stop offset=".52" stop-color="#18636c" stop-opacity=".13"/><stop offset="1" stop-color="#061a25" stop-opacity=".67"/></radialGradient><linearGradient id="pillar"><stop stop-color="#061a25"/><stop offset=".4" stop-color="#18636c"/><stop offset=".57" stop-color="#061a25"/><stop offset="1" stop-color="#061a25"/></linearGradient><linearGradient id="floor" x2="0" y2="1"><stop stop-color="#18636c"/><stop offset=".3" stop-color="#061a25"/><stop offset="1" stop-color="#061a25"/></linearGradient><filter id="glow"><feGaussianBlur stdDeviation="3"/></filter><filter id="softGlow"><feGaussianBlur stdDeviation="23"/></filter><radialGradient id="aura"><stop stop-color="#9af1e2" stop-opacity=".5"/><stop offset="1" stop-color="#9af1e2" stop-opacity="0"/></radialGradient></defs>
 <rect width="960" height="1050" fill="url(#sky)"/><ellipse cx="480" cy="430" rx="425" ry="505" fill="url(#aura)" opacity=".28"/><circle cx="861" cy="526" r="0.8" fill="#9af1e2" opacity="0.48"/><circle cx="447" cy="440" r="1.5" fill="#9af1e2" opacity="0.40"/><circle cx="438" cy="440" r="1" fill="#9af1e2" opacity="0.13"/><circle cx="507" cy="514" r="1" fill="#9af1e2" opacity="0.48"/><circle cx="796" cy="291" r="2" fill="#9af1e2" opacity="0.18"/><circle cx="174" cy="513" r="0.8" fill="#9af1e2" opacity="0.21"/><circle cx="319" cy="478" r="1.5" fill="#9af1e2" opacity="0.47"/><circle cx="563" cy="145" r="0.8" fill="#9af1e2" opacity="0.41"/><circle cx="308" cy="570" r="1.5" fill="#9af1e2" opacity="0.41"/><circle cx="326" cy="235" r="1" fill="#9af1e2" opacity="0.34"/><circle cx="599" cy="238" r="2" fill="#9af1e2" opacity="0.25"/><circle cx="486" cy="256" r="1" fill="#9af1e2" opacity="0.31"/><circle cx="258" cy="161" r="2" fill="#9af1e2" opacity="0.48"/><circle cx="768" cy="157" r="2" fill="#9af1e2" opacity="0.22"/><circle cx="120" cy="207" r="0.8" fill="#9af1e2" opacity="0.23"/><circle cx="562" cy="545" r="1.5" fill="#9af1e2" opacity="0.43"/><circle cx="163" cy="83" r="1" fill="#9af1e2" opacity="0.53"/><circle cx="747" cy="465" r="0.8" fill="#9af1e2" opacity="0.42"/><circle cx="484" cy="145" r="2" fill="#9af1e2" opacity="0.20"/><circle cx="453" cy="30" r="1" fill="#9af1e2" opacity="0.60"/><circle cx="443" cy="208" r="1.5" fill="#9af1e2" opacity="0.50"/><circle cx="182" cy="276" r="1" fill="#9af1e2" opacity="0.31"/><circle cx="50" cy="430" r="2" fill="#9af1e2" opacity="0.27"/><circle cx="553" cy="340" r="2" fill="#9af1e2" opacity="0.20"/><circle cx="837" cy="555" r="1" fill="#9af1e2" opacity="0.55"/><circle cx="575" cy="141" r="0.8" fill="#9af1e2" opacity="0.16"/><circle cx="197" cy="49" r="1.5" fill="#9af1e2" opacity="0.14"/><circle cx="587" cy="490" r="1" fill="#9af1e2" opacity="0.44"/><circle cx="624" cy="369" r="0.8" fill="#9af1e2" opacity="0.50"/><circle cx="487" cy="385" r="0.8" fill="#9af1e2" opacity="0.42"/><circle cx="205" cy="256" r="1.5" fill="#9af1e2" opacity="0.15"/><circle cx="341" cy="583" r="2" fill="#9af1e2" opacity="0.22"/><circle cx="820" cy="444" r="0.8" fill="#9af1e2" opacity="0.25"/><circle cx="193" cy="370" r="1" fill="#9af1e2" opacity="0.26"/><circle cx="426" cy="279" r="2" fill="#9af1e2" opacity="0.24"/><circle cx="645" cy="394" r="1" fill="#9af1e2" opacity="0.50"/><circle cx="647" cy="88" r="1.5" fill="#9af1e2" opacity="0.36"/><circle cx="368" cy="322" r="0.8" fill="#9af1e2" opacity="0.45"/><circle cx="269" cy="265" r="2" fill="#9af1e2" opacity="0.53"/><circle cx="261" cy="354" r="2" fill="#9af1e2" opacity="0.36"/><circle cx="526" cy="249" r="1" fill="#9af1e2" opacity="0.19"/><circle cx="881" cy="338" r="0.8" fill="#9af1e2" opacity="0.38"/><circle cx="664" cy="583" r="1.5" fill="#9af1e2" opacity="0.41"/><circle cx="120" cy="420" r="0.8" fill="#9af1e2" opacity="0.37"/><circle cx="304" cy="262" r="2" fill="#9af1e2" opacity="0.47"/><circle cx="159" cy="419" r="1.5" fill="#9af1e2" opacity="0.37"/><circle cx="684" cy="321" r="2" fill="#9af1e2" opacity="0.43"/><circle cx="661" cy="76" r="1.5" fill="#9af1e2" opacity="0.43"/><circle cx="523" cy="581" r="1.5" fill="#9af1e2" opacity="0.42"/><circle cx="497" cy="361" r="2" fill="#9af1e2" opacity="0.21"/><circle cx="485" cy="303" r="0.8" fill="#9af1e2" opacity="0.41"/><circle cx="527" cy="292" r="1.5" fill="#9af1e2" opacity="0.46"/><circle cx="457" cy="263" r="1.5" fill="#9af1e2" opacity="0.30"/><circle cx="418" cy="396" r="0.8" fill="#9af1e2" opacity="0.57"/><circle cx="86" cy="543" r="0.8" fill="#9af1e2" opacity="0.47"/><circle cx="598" cy="409" r="1.5" fill="#9af1e2" opacity="0.18"/><circle cx="763" cy="303" r="1.5" fill="#9af1e2" opacity="0.39"/><circle cx="838" cy="516" r="2" fill="#9af1e2" opacity="0.40"/><circle cx="290" cy="424" r="1" fill="#9af1e2" opacity="0.32"/><circle cx="925" cy="330" r="0.8" fill="#9af1e2" opacity="0.60"/><circle cx="689" cy="456" r="2" fill="#9af1e2" opacity="0.26"/><circle cx="823" cy="464" r="1" fill="#9af1e2" opacity="0.17"/><circle cx="258" cy="495" r="1" fill="#9af1e2" opacity="0.44"/><circle cx="682" cy="101" r="0.8" fill="#9af1e2" opacity="0.47"/><circle cx="178" cy="296" r="1" fill="#9af1e2" opacity="0.34"/><circle cx="874" cy="344" r="1.5" fill="#9af1e2" opacity="0.46"/><circle cx="124" cy="212" r="2" fill="#9af1e2" opacity="0.20"/><circle cx="644" cy="232" r="2" fill="#9af1e2" opacity="0.33"/><circle cx="757" cy="355" r="2" fill="#9af1e2" opacity="0.38"/><circle cx="720" cy="87" r="1.5" fill="#9af1e2" opacity="0.27"/><circle cx="544" cy="109" r="0.8" fill="#9af1e2" opacity="0.34"/><circle cx="851" cy="332" r="0.8" fill="#9af1e2" opacity="0.48"/><circle cx="501" cy="173" r="2" fill="#9af1e2" opacity="0.45"/><circle cx="177" cy="80" r="1" fill="#9af1e2" opacity="0.22"/><circle cx="634" cy="316" r="0.8" fill="#9af1e2" opacity="0.32"/><circle cx="915" cy="357" r="1.5" fill="#9af1e2" opacity="0.57"/><circle cx="582" cy="388" r="2" fill="#9af1e2" opacity="0.15"/><circle cx="712" cy="73" r="0.8" fill="#9af1e2" opacity="0.61"/><circle cx="766" cy="379" r="1" fill="#9af1e2" opacity="0.21"/><circle cx="898" cy="81" r="0.8" fill="#9af1e2" opacity="0.25"/><circle cx="298" cy="492" r="0.8" fill="#9af1e2" opacity="0.29"/><circle cx="672" cy="208" r="2" fill="#9af1e2" opacity="0.56"/><circle cx="268" cy="113" r="1.5" fill="#9af1e2" opacity="0.48"/><circle cx="322" cy="254" r="0.8" fill="#9af1e2" opacity="0.18"/><circle cx="512" cy="564" r="1" fill="#9af1e2" opacity="0.56"/><circle cx="758" cy="186" r="2" fill="#9af1e2" opacity="0.58"/><circle cx="491" cy="341" r="0.8" fill="#9af1e2" opacity="0.48"/><circle cx="261" cy="32" r="0.8" fill="#9af1e2" opacity="0.14"/><circle cx="443" cy="259" r="2" fill="#9af1e2" opacity="0.52"/><circle cx="298" cy="479" r="2" fill="#9af1e2" opacity="0.34"/><circle cx="313" cy="53" r="1" fill="#9af1e2" opacity="0.29"/><circle cx="104" cy="220" r="0.8" fill="#9af1e2" opacity="0.19"/><circle cx="565" cy="345" r="2" fill="#9af1e2" opacity="0.39"/><circle cx="819" cy="170" r="0.8" fill="#9af1e2" opacity="0.50"/><circle cx="724" cy="220" r="1" fill="#9af1e2" opacity="0.15"/><circle cx="21" cy="44" r="1" fill="#9af1e2" opacity="0.54"/><circle cx="204" cy="313" r="1.5" fill="#9af1e2" opacity="0.25"/><circle cx="22" cy="512" r="1.5" fill="#9af1e2" opacity="0.31"/><circle cx="856" cy="155" r="2" fill="#9af1e2" opacity="0.33"/><circle cx="142" cy="418" r="1" fill="#9af1e2" opacity="0.47"/><circle cx="242" cy="374" r="0.8" fill="#9af1e2" opacity="0.50"/><circle cx="143" cy="234" r="1.5" fill="#9af1e2" opacity="0.16"/><circle cx="531" cy="476" r="1" fill="#9af1e2" opacity="0.36"/><circle cx="128" cy="576" r="2" fill="#9af1e2" opacity="0.41"/><circle cx="897" cy="600" r="2" fill="#9af1e2" opacity="0.14"/><circle cx="709" cy="434" r="1.5" fill="#9af1e2" opacity="0.52"/><circle cx="750" cy="560" r="1.5" fill="#9af1e2" opacity="0.34"/><circle cx="604" cy="402" r="0.8" fill="#9af1e2" opacity="0.42"/><circle cx="62" cy="522" r="2" fill="#9af1e2" opacity="0.49"/><circle cx="398" cy="352" r="1" fill="#9af1e2" opacity="0.14"/><circle cx="479" cy="404" r="1.5" fill="#9af1e2" opacity="0.26"/><circle cx="101" cy="282" r="1.5" fill="#9af1e2" opacity="0.28"/><circle cx="760" cy="541" r="1.5" fill="#9af1e2" opacity="0.33"/><circle cx="162" cy="350" r="1.5" fill="#9af1e2" opacity="0.32"/><circle cx="33" cy="548" r="2" fill="#9af1e2" opacity="0.16"/>
 <path d="M0 0H960V244Q769 82 670 215Q480 -16 290 215Q188 82 0 244Z" fill="#061a25" stroke="#d3c4a1" stroke-width="8" stroke-opacity=".6"/><path d="M0 0H960V90Q750 29 640 151Q480 -41 320 151Q210 30 0 90Z" fill="#d3c4a1" opacity=".12"/><rect x="39" y="230" width="46" height="660" fill="url(#pillar)" stroke="#d3c4a1" stroke-opacity=".2" stroke-width="2"/><path d="M27 238H97L86 265H38Z" fill="#d3c4a1" opacity=".22"/><path d="M29 864H95V885H29Z" fill="#d3c4a1" opacity=".19"/><line x1="54" y1="270" x2="54" y2="844" stroke="#d3c4a1" opacity=".19" stroke-width="2"/><rect x="142" y="230" width="46" height="660" fill="url(#pillar)" stroke="#d3c4a1" stroke-opacity=".2" stroke-width="2"/><path d="M130 238H200L189 265H141Z" fill="#d3c4a1" opacity=".22"/><path d="M132 864H198V885H132Z" fill="#d3c4a1" opacity=".19"/><line x1="157" y1="270" x2="157" y2="844" stroke="#d3c4a1" opacity=".19" stroke-width="2"/><rect x="772" y="230" width="46" height="660" fill="url(#pillar)" stroke="#d3c4a1" stroke-opacity=".2" stroke-width="2"/><path d="M760 238H830L819 265H771Z" fill="#d3c4a1" opacity=".22"/><path d="M762 864H828V885H762Z" fill="#d3c4a1" opacity=".19"/><line x1="787" y1="270" x2="787" y2="844" stroke="#d3c4a1" opacity=".19" stroke-width="2"/><rect x="875" y="230" width="46" height="660" fill="url(#pillar)" stroke="#d3c4a1" stroke-opacity=".2" stroke-width="2"/><path d="M863 238H933L922 265H874Z" fill="#d3c4a1" opacity=".22"/><path d="M865 864H931V885H865Z" fill="#d3c4a1" opacity=".19"/><line x1="890" y1="270" x2="890" y2="844" stroke="#d3c4a1" opacity=".19" stroke-width="2"/><path d="M40 700 V345 Q112 210 184 345 V700" fill="none" stroke="#9af1e2" stroke-opacity=".14" stroke-width="9"/><path d="M776 700 V345 Q848 210 920 345 V700" fill="none" stroke="#9af1e2" stroke-opacity=".14" stroke-width="9"/><path d="M294 746 V380 Q292 176 480 155 Q668 176 666 380 V746Z" fill="url(#portal)" stroke="#d3c4a1" stroke-opacity=".68" stroke-width="11"/><path d="M317 742 V383 Q319 205 480 188 Q641 205 643 383 V742Z" fill="none" stroke="#9af1e2" stroke-opacity=".5" stroke-width="3"/><path d="M343 713 V405 Q345 245 480 228 Q615 245 617 405 V713Z" fill="url(#inner)"/><circle cx="495" cy="347" r="107" fill="#9af1e2" opacity=".6" filter="url(#softGlow)"/><circle cx="495" cy="347" r="71" fill="#d4fff0" opacity=".88"/><circle cx="523" cy="328" r="65" fill="#061a25"/><path d="M480 645c-140 -80 -115 -240 -140 -314M480 645c145 -80 116 -240 140 -314" fill="none" stroke="#4c8676" stroke-width="15"/><g fill="none" stroke="#d3c4a1" stroke-opacity=".55" stroke-width="4"><path d="M340 394c-67 -25 -76 -93 -78 -142M610 398c84 -24 92 -98 113 -131M345 480c-58 -49 -94 -29 -111 -110M628 476c65 -49 103 -26 118 -105"/></g><ellipse cx="480" cy="716" rx="111" ry="29" fill="#9af1e2" opacity=".28"/><path d="M450 715q30 -115 60 0" fill="none" stroke="#9af1e2" stroke-width="9"/><g fill="#d3c4a1" opacity=".75"><circle cx="340" cy="390" r="10"/><circle cx="623" cy="398" r="10"/><circle cx="240" cy="377" r="8"/><circle cx="739" cy="371" r="8"/></g><path d="M0 900L360 705H600L960 900V1050H0Z" fill="url(#floor)" opacity=".97"/><g stroke="#d3c4a1" stroke-opacity=".16" fill="none"><path d="M480 704L225 1050M480 704L735 1050M480 704L28 1050M480 704L932 1050"/><path d="M192 895H769M116 964H844"/></g><ellipse cx="480" cy="777" rx="206" ry="52" fill="#9af1e2" opacity=".13" filter="url(#softGlow)"/><circle cx="136" cy="489" r="4" fill="#d3c4a1" opacity="0.27" filter="url(#glow)"/><circle cx="425" cy="251" r="4" fill="#d3c4a1" opacity="0.37" filter="url(#glow)"/><circle cx="837" cy="210" r="4" fill="#d3c4a1" opacity="0.39" filter="url(#glow)"/><circle cx="862" cy="516" r="2" fill="#d3c4a1" opacity="0.26" filter="url(#glow)"/><circle cx="343" cy="441" r="3" fill="#d3c4a1" opacity="0.42" filter="url(#glow)"/><circle cx="296" cy="732" r="3" fill="#d3c4a1" opacity="0.46" filter="url(#glow)"/><circle cx="495" cy="194" r="3" fill="#d3c4a1" opacity="0.34" filter="url(#glow)"/><circle cx="489" cy="312" r="3" fill="#d3c4a1" opacity="0.25" filter="url(#glow)"/><circle cx="325" cy="529" r="4" fill="#d3c4a1" opacity="0.39" filter="url(#glow)"/><circle cx="846" cy="338" r="2" fill="#d3c4a1" opacity="0.24" filter="url(#glow)"/><circle cx="628" cy="425" r="3" fill="#d3c4a1" opacity="0.27" filter="url(#glow)"/><circle cx="198" cy="775" r="2" fill="#d3c4a1" opacity="0.17" filter="url(#glow)"/><circle cx="463" cy="656" r="4" fill="#d3c4a1" opacity="0.14" filter="url(#glow)"/><circle cx="177" cy="332" r="4" fill="#d3c4a1" opacity="0.16" filter="url(#glow)"/><circle cx="507" cy="217" r="3" fill="#d3c4a1" opacity="0.13" filter="url(#glow)"/><circle cx="798" cy="789" r="4" fill="#d3c4a1" opacity="0.15" filter="url(#glow)"/><circle cx="848" cy="649" r="2" fill="#d3c4a1" opacity="0.46" filter="url(#glow)"/><circle cx="464" cy="729" r="2" fill="#d3c4a1" opacity="0.41" filter="url(#glow)"/><circle cx="638" cy="646" r="3" fill="#d3c4a1" opacity="0.43" filter="url(#glow)"/><circle cx="161" cy="262" r="4" fill="#d3c4a1" opacity="0.34" filter="url(#glow)"/><circle cx="360" cy="453" r="2" fill="#d3c4a1" opacity="0.23" filter="url(#glow)"/><circle cx="333" cy="671" r="3" fill="#d3c4a1" opacity="0.17" filter="url(#glow)"/><circle cx="484" cy="451" r="2" fill="#d3c4a1" opacity="0.29" filter="url(#glow)"/><circle cx="90" cy="579" r="4" fill="#d3c4a1" opacity="0.26" filter="url(#glow)"/><circle cx="121" cy="541" r="4" fill="#d3c4a1" opacity="0.43" filter="url(#glow)"/><circle cx="859" cy="279" r="4" fill="#d3c4a1" opacity="0.17" filter="url(#glow)"/><circle cx="572" cy="432" r="3" fill="#d3c4a1" opacity="0.34" filter="url(#glow)"/><circle cx="696" cy="291" r="2" fill="#d3c4a1" opacity="0.27" filter="url(#glow)"/><circle cx="565" cy="553" r="2" fill="#d3c4a1" opacity="0.23" filter="url(#glow)"/><circle cx="167" cy="210" r="2" fill="#d3c4a1" opacity="0.15" filter="url(#glow)"/><circle cx="827" cy="407" r="4" fill="#d3c4a1" opacity="0.19" filter="url(#glow)"/><circle cx="622" cy="600" r="2" fill="#d3c4a1" opacity="0.44" filter="url(#glow)"/><circle cx="689" cy="660" r="4" fill="#d3c4a1" opacity="0.20" filter="url(#glow)"/><circle cx="158" cy="615" r="4" fill="#d3c4a1" opacity="0.41" filter="url(#glow)"/>
 <g fill="none" stroke="#d3c4a1" opacity=".39" stroke-width="3"><path d="M23 36h100m-100 0v90M937 36H837m100 0v90"/><path d="M25 1014h120m-120 0v-80M935 1014H815m120 0v-80"/></g><path d="M0 0H960V1050H0Z" stroke="#d3c4a1" stroke-opacity=".19" stroke-width="12" fill="none"/>
 </svg>